<?xml version="1.0" encoding="UTF-8" standalone="no"?>
<svg
   id="svg2"
   enable-background="new 0 0 18 18"
   viewBox="0 0 512 512"
   height="512"
   width="512"
   y="0px"
   x="0px"
   version="1.1"><g
     transform="translate(3.829163,489.77985)"
     id="g6"><path
       id="rect4150"
       d="m -3.1583164,-489.7807 c 170.2628864,0 340.5257764,0 510.7886764,0 1.41353,35.48544 0.20164,72.05837 0.60566,107.96196 0,134.47746 0,268.95492 0,403.432375 -35.48544,1.413535 -72.05837,0.201649 -107.96197,0.605664 -134.47745,0 -268.95491,0 -403.4323664,0 -1.4135353,-35.485441 -0.2016493,-72.058367 -0.6056642,-107.961965 0,-134.477454 0,-268.954914 0,-403.432374 l 0.6056642,-0.60566 z"
       style="fill:#ffa742;" /><path
       id="path4152"
       d="m 508.11811,-489.10016 c -170.11263,170.66667 -340.22527,341.33333 -510.337898,512 170.130208,0 340.260418,0 510.390628,0 1.41308,-35.485537 0.20158,-72.058211 0.60547,-107.961771 0,-134.477589 0,-268.955169 0,-403.432759 l -0.60547,-0.60547 -0.0527,0 -3e-5,0 z"
       style="fill:#ffba6c;" /><path
       id="path14"
       d="m 236.35443,-348.78571 c -48.31144,-1.77554 -94.0672,35.14054 -101.37147,83.20458 -1.50453,15.52307 1.66111,31.12409 -17.29599,33.94884 -40.690922,18.46644 -81.381848,36.93288 -122.0727736,55.39932 0,66.13476 0,132.269527 0,198.40429 35.4855356,1.413082 72.0582096,0.201585 107.9617736,0.60547 30.76339,0 61.52679,0 92.29018,0 28.50254,-34.179854 57.4302,-70.153875 67.49782,-114.630104 10.87891,-36.332096 1.0552,-75.885786 17.21924,-111.090846 14.41355,-37.52831 44.0656,-73.76218 86.38638,-78.67007 25.05041,-4.19742 50.81835,-0.86656 74.99358,6.08026 -33.57558,-23.82468 -77.81599,-35.02386 -118.59702,-25.57791 -17.42065,-30.39186 -52.62206,-47.48068 -87.01172,-47.67383 z"
       style="fill:#ffffff;" /><path
       id="circle16"
       d="m 290.73962,-301.1128 c 0.91431,15.83508 -23.76585,20.47464 -28.65249,5.37383 -6.4779,-14.18695 14.23624,-27.53609 24.46083,-15.70612 2.66961,2.72834 4.20557,6.51558 4.19166,10.33229 z"
       style="fill:#ffb60c;" /></g></svg><?xml version="1.0" encoding="UTF-8" standalone="no"?>
<svg
   id="svg2"
   enable-background="new 0 0 18 18"
   viewBox="0 0 512 512"
   height="512"
   width="512"
   y="0px"
   x="0px"
   version="1.1"><g
     transform="translate(3.829163,489.77985)"
     id="g6"><path
       id="rect4150"
       d="m -3.1583164,-489.7807 c 170.2628864,0 340.5257764,0 510.7886764,0 1.41353,35.48544 0.20164,72.05837 0.60566,107.96196 0,134.47746 0,268.95492 0,403.432375 -35.48544,1.413535 -72.05837,0.201649 -107.96197,0.605664 -134.47745,0 -268.95491,0 -403.4323664,0 -1.4135353,-35.485441 -0.2016493,-72.058367 -0.6056642,-107.961965 0,-134.477454 0,-268.954914 0,-403.432374 l 0.6056642,-0.60566 z"
       style="fill:#ffa742;" /><path
       id="path4152"
       d="m 508.11811,-489.10016 c -170.11263,170.66667 -340.22527,341.33333 -510.337898,512 170.130208,0 340.260418,0 510.390628,0 1.41308,-35.485537 0.20158,-72.058211 0.60547,-107.961771 0,-134.477589 0,-268.955169 0,-403.432759 l -0.60547,-0.60547 -0.0527,0 -3e-5,0 z"
       style="fill:#ffba6c;" /><path
       id="path14"
       d="m 236.35443,-348.78571 c -48.31144,-1.77554 -94.0672,35.14054 -101.37147,83.20458 -1.50453,15.52307 1.66111,31.12409 -17.29599,33.94884 -40.690922,18.46644 -81.381848,36.93288 -122.0727736,55.39932 0,66.13476 0,132.269527 0,198.40429 35.4855356,1.413082 72.0582096,0.201585 107.9617736,0.60547 30.76339,0 61.52679,0 92.29018,0 28.50254,-34.179854 57.4302,-70.153875 67.49782,-114.630104 10.87891,-36.332096 1.0552,-75.885786 17.21924,-111.090846 14.41355,-37.52831 44.0656,-73.76218 86.38638,-78.67007 25.05041,-4.19742 50.81835,-0.86656 74.99358,6.08026 -33.57558,-23.82468 -77.81599,-35.02386 -118.59702,-25.57791 -17.42065,-30.39186 -52.62206,-47.48068 -87.01172,-47.67383 z"
       style="fill:#ffffff;" /><path
       id="circle16"
       d="m 290.73962,-301.1128 c 0.91431,15.83508 -23.76585,20.47464 -28.65249,5.37383 -6.4779,-14.18695 14.23624,-27.53609 24.46083,-15.70612 2.66961,2.72834 4.20557,6.51558 4.19166,10.33229 z"
       style="fill:#ffb60c;" /></g></svg>
